<svg id="Capa_1" enable-background="new 0 0 512 512" height="512" viewBox="0 0 512 512" width="512" xmlns="http://www.w3.org/2000/svg"><g><path d="m490.137 450.296h-468.273c-7.933 0-14.364-6.431-14.364-14.364v-359.865c0-7.933 6.431-14.364 14.364-14.364h468.273c7.933 0 14.364 6.431 14.364 14.364v359.865c-.001 7.933-6.432 14.364-14.364 14.364z" fill="#365e7d"/><path d="m490.137 61.704h-25.146c7.933 0 14.364 6.431 14.364 14.364v359.865c0 7.933-6.431 14.364-14.364 14.364h25.146c7.933 0 14.364-6.431 14.364-14.364v-359.866c-.001-7.932-6.432-14.363-14.364-14.363z" fill="#2b4d66"/><path d="m37.5 418.094v-324.189c0-1.216.986-2.202 2.202-2.202h432.596c1.216 0 2.202.986 2.202 2.202v324.189c0 1.216-.986 2.202-2.202 2.202h-432.596c-1.216 0-2.202-.985-2.202-2.202z" fill="#95d6a4"/><path d="m472.298 91.704h-21.857c1.216 0 2.202.986 2.202 2.202v324.189c0 1.216-.986 2.202-2.202 2.202h21.857c1.216 0 2.202-.986 2.202-2.202v-324.19c0-1.216-.986-2.201-2.202-2.201z" fill="#78c2a4"/><path d="m170.791 252.28h-84.184c-2.21 0-4.001-1.792-4.001-4.001v-122.16c0-2.21 1.792-4.001 4.001-4.001h84.184c2.21 0 4.001 1.792 4.001 4.001v122.16c.001 2.209-1.791 4.001-4.001 4.001z" fill="#f9f6f9"/><path d="m170.791 122.117h-18.714c2.21 0 4.001 1.792 4.001 4.001v122.16c0 2.21-1.792 4.001-4.001 4.001h18.714c2.21 0 4.001-1.792 4.001-4.001v-122.16c.001-2.209-1.791-4.001-4.001-4.001z" fill="#dddaec"/><g><path d="m200.791 388.375h-114.184c-2.21 0-4.001-1.792-4.001-4.001v-94.16c0-2.21 1.792-4.001 4.001-4.001h114.184c2.21 0 4.001 1.792 4.001 4.001v94.16c.001 2.209-1.791 4.001-4.001 4.001z" fill="#f9f6f9"/><path d="m200.791 286.212h-18.714c2.21 0 4.001 1.792 4.001 4.001v94.16c0 2.21-1.792 4.001-4.001 4.001h18.714c2.21 0 4.001-1.792 4.001-4.001v-94.16c.001-2.209-1.791-4.001-4.001-4.001z" fill="#dddaec"/></g><path d="m421.222 330.387h-166.68c-4.022 0-7.283-3.261-7.283-7.283v-153.018c0-4.022 3.261-7.283 7.283-7.283h166.68c4.022 0 7.283 3.261 7.283 7.283v153.018c0 4.022-3.261 7.283-7.283 7.283z" fill="#ffd064"/><path d="m421.222 162.803h-21.681c4.022 0 7.283 3.261 7.283 7.283v153.018c0 4.022-3.261 7.283-7.283 7.283h21.681c4.022 0 7.283-3.261 7.283-7.283v-153.018c0-4.022-3.261-7.283-7.283-7.283z" fill="#ebb044"/><path d="m440.398 190.007h-53.869c-4.001 0-7.245-3.244-7.245-7.245v-59.057c0-4.001 3.244-7.245 7.245-7.245h53.869c4.001 0 7.245 3.244 7.245 7.245v59.057c0 4.001-3.244 7.245-7.245 7.245z" fill="#da4a54"/><path d="m440.398 116.46h-19.138c4.001 0 7.245 3.244 7.245 7.245v59.057c0 4.001-3.244 7.245-7.245 7.245h19.138c4.001 0 7.245-3.244 7.245-7.245v-59.057c0-4.001-3.244-7.245-7.245-7.245z" fill="#d82e3d"/><g><path d="m147.803 155.311c4.143 0 7.5-3.358 7.5-7.5s-3.357-7.5-7.5-7.5h-18.207c-4.143 0-7.5 3.358-7.5 7.5s3.357 7.5 7.5 7.5z"/><path d="m102.095 173.909c0 4.142 3.357 7.5 7.5 7.5h38.208c4.143 0 7.5-3.358 7.5-7.5s-3.357-7.5-7.5-7.5h-38.208c-4.143 0-7.5 3.358-7.5 7.5z"/><path d="m109.595 207.507h38.208c4.143 0 7.5-3.358 7.5-7.5s-3.357-7.5-7.5-7.5h-38.208c-4.143 0-7.5 3.358-7.5 7.5s3.357 7.5 7.5 7.5z"/><path d="m109.595 233.605h38.208c4.143 0 7.5-3.358 7.5-7.5s-3.357-7.5-7.5-7.5h-38.208c-4.143 0-7.5 3.358-7.5 7.5s3.357 7.5 7.5 7.5z"/><path d="m200.791 278.712h-114.185c-6.342 0-11.501 5.159-11.501 11.501v94.16c0 6.342 5.159 11.501 11.501 11.501h114.185c6.342 0 11.502-5.159 11.502-11.501v-46.577c8.253-.972 18.577-4.723 27.515-13.715.507 7.695 6.912 13.806 14.734 13.806h166.68c8.151 0 14.783-6.632 14.783-14.783v-125.597h4.393c8.131 0 14.745-6.614 14.745-14.745v-59.058c0-8.13-6.614-14.745-14.745-14.745h-53.869c-8.131 0-14.745 6.614-14.745 14.745v31.598h-117.242c-8.151 0-14.783 6.632-14.783 14.783v34.872c-36.272 6.324-54.017-25.629-57.466-32.702v-46.137c0-6.342-5.16-11.501-11.502-11.501h-84.185c-6.342 0-11.501 5.16-11.501 11.501v61.152c0 4.142 3.357 7.5 7.5 7.5s7.5-3.358 7.5-7.5v-57.653h77.188v115.163h-77.188v-27.522c0-4.142-3.357-7.5-7.5-7.5s-7.5 3.358-7.5 7.5v31.021c0 6.342 5.159 11.501 11.501 11.501h84.185c6.342 0 11.502-5.159 11.502-11.501v-49.844c1.413 1.552 2.933 3.106 4.567 4.63 9.357 8.731 23.796 17.759 43.49 17.759 3.012 0 6.149-.216 9.408-.672v75.813c-7.181 19.8-19.763 25.221-27.466 26.607v-32.358c.001-6.343-5.159-11.502-11.501-11.502zm185.992-154.752h53.359v58.547h-53.359zm-132.024 46.343h117.024v12.459c0 8.13 6.614 14.745 14.745 14.745h34.477v125.38h-166.246zm-57.466 210.571h-107.188v-87.162h107.188z"/><path d="m129.596 318.696h48.207c4.143 0 7.5-3.357 7.5-7.5s-3.357-7.5-7.5-7.5h-48.207c-4.143 0-7.5 3.357-7.5 7.5s3.357 7.5 7.5 7.5z"/><path d="m109.595 344.793h68.208c4.143 0 7.5-3.357 7.5-7.5s-3.357-7.5-7.5-7.5h-68.208c-4.143 0-7.5 3.357-7.5 7.5s3.357 7.5 7.5 7.5z"/><path d="m109.595 370.891h68.208c4.143 0 7.5-3.357 7.5-7.5s-3.357-7.5-7.5-7.5h-68.208c-4.143 0-7.5 3.357-7.5 7.5s3.357 7.5 7.5 7.5z"/><path d="m356.521 207.613c-2.021-1.4-4.598-1.724-6.903-.861l-26.612 9.959h-10.586c-12.925 0-23.439 10.515-23.439 23.44 0 10.809 7.357 19.928 17.326 22.625l4.393 18.381c.96 4.015 4.992 6.516 9.038 5.552 4.029-.963 6.515-5.01 5.552-9.038l-3.365-14.081h1.081l26.612 9.96c2.328.869 4.901.526 6.903-.861 2.021-1.401 3.226-3.704 3.226-6.163v-52.75c-.001-2.459-1.206-4.762-3.226-6.163zm-44.101 24.098h4.443v16.88h-4.443c-4.653 0-8.439-3.786-8.439-8.44s3.786-8.44 8.439-8.44zm32.326 24-12.883-4.821v-21.478l12.883-4.821z"/><path d="m379.283 232.651h-5.125c-4.143 0-7.5 3.358-7.5 7.5s3.357 7.5 7.5 7.5h5.125c4.143 0 7.5-3.358 7.5-7.5s-3.357-7.5-7.5-7.5z"/><path d="m374.206 226.148c.562 0 1.134-.063 1.705-.196l5.016-1.166c4.034-.938 6.545-4.969 5.607-9.003-.938-4.035-4.971-6.547-9.004-5.607l-5.016 1.166c-4.034.938-6.545 4.969-5.607 9.003.806 3.463 3.89 5.803 7.299 5.803z"/><path d="m380.927 255.516-5.016-1.166c-4.035-.937-8.065 1.572-9.004 5.607-.938 4.034 1.573 8.065 5.607 9.004l5.016 1.166c4.027.936 8.063-1.565 9.004-5.607.938-4.034-1.573-8.066-5.607-9.004z"/><path d="m421.26 350.632h-69.014c-4.143 0-7.5 3.357-7.5 7.5s3.357 7.5 7.5 7.5h69.014c4.143 0 7.5-3.357 7.5-7.5s-3.358-7.5-7.5-7.5z"/><path d="m254.746 388.374c0 4.143 3.357 7.5 7.5 7.5h159.014c4.143 0 7.5-3.357 7.5-7.5s-3.357-7.5-7.5-7.5h-159.014c-4.142 0-7.5 3.358-7.5 7.5z"/><path d="m320.422 365.632c4.143 0 7.5-3.357 7.5-7.5s-3.357-7.5-7.5-7.5h-17.544c-4.143 0-7.5 3.357-7.5 7.5s3.357 7.5 7.5 7.5z"/><path d="m189.786 427.796h282.512c5.35 0 9.702-4.353 9.702-9.702v-324.188c0-5.35-4.353-9.702-9.702-9.702h-432.596c-5.35 0-9.702 4.353-9.702 9.702v324.188c0 5.35 4.353 9.702 9.702 9.702h120.097c4.143 0 7.5-3.357 7.5-7.5s-3.357-7.5-7.5-7.5h-114.799v-313.593h422v313.593h-277.214c-4.143 0-7.5 3.357-7.5 7.5s3.358 7.5 7.5 7.5z"/><path d="m490.137 54.204h-40.692c-4.143 0-7.5 3.358-7.5 7.5s3.357 7.5 7.5 7.5h40.692c3.784 0 6.863 3.079 6.863 6.864v359.865c0 3.784-3.079 6.863-6.863 6.863h-468.273c-3.785 0-6.864-3.079-6.864-6.863v-359.865c0-3.785 3.079-6.864 6.864-6.864h397.594c4.143 0 7.5-3.358 7.5-7.5s-3.357-7.5-7.5-7.5h-397.594c-12.055 0-21.864 9.808-21.864 21.864v359.865c0 12.056 9.809 21.863 21.864 21.863h468.272c12.056 0 21.863-9.808 21.863-21.863v-359.865c.001-12.056-9.807-21.864-21.862-21.864z"/></g></g></svg>